<svg xmlns="http://www.w3.org/2000/svg" viewBox="0 0 25 31.25" x="0px" y="0px"><title>Logout</title><g data-name="Layer 27"><path d="M18,15.5v6A1.47,1.47,0,0,1,16.59,23H3.41A1.47,1.47,0,0,1,2,21.5V3.5A1.47,1.47,0,0,1,3.41,2H16.59A1.47,1.47,0,0,1,18,3.5v6a.5.5,0,0,1-1,0v-6a.47.47,0,0,0-.44-.5H3.41A.47.47,0,0,0,3,3.5v18a.47.47,0,0,0,.44.5H16.59a.47.47,0,0,0,.44-.5v-6a.5.5,0,0,1,1,0ZM23,12.69a.5.5,0,0,0,0-.38.36.36,0,0,0-.11-.16l-2-2a.49.49,0,0,0-.7.7L21.29,12H12.5a.5.5,0,0,0,0,1h8.79l-1.14,1.15a.48.48,0,0,0,0,.7.48.48,0,0,0,.7,0l2-2A.36.36,0,0,0,23,12.69Z"/></g></svg>