<svg xmlns="http://www.w3.org/2000/svg" xmlns:xlink="http://www.w3.org/1999/xlink" version="1.1" x="0px" y="0px" viewBox="0 0 48 60" style="enable-background:new 0 0 48 48;" xml:space="preserve"><g><path d="M24,6C14.1,6,6,14.1,6,24c0,9.9,8.1,18,18,18c9.9,0,18-8.1,18-18C42,14.1,33.9,6,24,6z M15,37.2V36c0-3.2,4.2-6,9-6   s9,2.8,9,6v1.2C30.5,39,27.3,40,24,40S17.5,39,15,37.2z M34.9,35.6C34.7,31.5,29.8,28,24,28s-10.7,3.4-10.9,7.6   C10,32.7,8,28.6,8,24c0-8.8,7.2-16,16-16s16,7.2,16,16C40,28.6,38,32.7,34.9,35.6z"/><path d="M24,12c-3.9,0-7,3.1-7,7s3.1,7,7,7c3.9,0,7-3.1,7-7S27.9,12,24,12z M24,24c-2.8,0-5-2.2-5-5s2.2-5,5-5s5,2.2,5,5   S26.8,24,24,24z"/></g></svg>