<svg xmlns:dc="http://purl.org/dc/elements/1.1/" xmlns:cc="http://creativecommons.org/ns#" xmlns:rdf="http://www.w3.org/1999/02/22-rdf-syntax-ns#" xmlns:svg="http://www.w3.org/2000/svg" xmlns="http://www.w3.org/2000/svg" xmlns:sodipodi="http://sodipodi.sourceforge.net/DTD/sodipodi-0.dtd" xmlns:inkscape="http://www.inkscape.org/namespaces/inkscape" version="1.1" x="0px" y="0px" viewBox="0 0 100 125"><g transform="translate(0,-952.36218)"><path style="text-indent:0;text-transform:none;direction:ltr;block-progression:tb;baseline-shift:baseline;color:#000000;enable-background:accumulate;" d="m 9.99999,1002.3622 c 0,22.0557 17.9441,40 40,40 22.05581,0 40.00002,-17.9443 40.00002,-40 0,-22.05571 -17.94421,-40.00002 -40.00002,-40.00002 -22.0559,0 -40,17.94431 -40,40.00002 z m 6,0 c 0,-18.81311 15.1868,-34.00001 34,-34.00001 18.81321,0 34.00001,15.1869 34.00001,34.00001 0,18.8131 -15.1868,34 -34.00001,34 -18.8132,0 -34,-15.1869 -34,-34 z m 7,0 c 0.028,0.715 0.3223,1.5413 0.8125,2.0625 l 16,17 c 1.0842,0.9743 3.1632,1.3765 4.375,0.25 1.1936,-1.1095 1.1578,-3.2611 -0.031,-4.375 l -11.25,-11.9375 41.09371,0 c 1.6568,0 3,-1.3431 3,-3 0,-1.6569 -1.3432,-3.00001 -3,-3.00001 l -41.09371,0 11.25,-11.9375 c 1.0237,-1.0255 1.2131,-3.2528 0.031,-4.375 -1.1816,-1.1221 -3.3353,-0.7637 -4.375,0.25 l -16,17.00001 c -0.5475,0.5818 -0.8143,1.2643 -0.8125,2.0625 z" fill="#000000" fill-opacity="1" fill-rule="nonzero" stroke="none" marker="none" visibility="visible" display="inline" overflow="visible"/></g></svg>