<svg xmlns="http://www.w3.org/2000/svg" viewBox="0 0 81.223 106.25" x="0px" y="0px"><title>logout_6</title><g data-name="Camada 2"><g data-name="Your Icon"><path d="M76.643,0H17.81284A4.58984,4.58984,0,0,0,13.223,4.58984V26.44a2,2,0,0,0,2,2h0a2,2,0,0,0,2-2V4.58A.58245.58245,0,0,1,17.81284,4H76.64292a.58008.58008,0,0,1,.58008.58008V80.41992A.58008.58008,0,0,1,76.64292,81H17.81284a.58246.58246,0,0,1-.58984-.58V54.56a2,2,0,0,0-2-2h0a2,2,0,0,0-2,2V80.42A4.58,4.58,0,0,0,17.803,85h58.84a4.58,4.58,0,0,0,4.58-4.58V4.58A4.58,4.58,0,0,0,76.643,0Z"/><path d="M24.03021,60.23033h-.00006a2.00017,2.00017,0,0,1-.11529-2.82617L37.6488,42.50084H2a2,2,0,0,1,0-4H37.66339L23.91614,23.59655a2.00008,2.00008,0,0,1,2.94031-2.71216L43.29553,38.70592a2.63284,2.63284,0,0,1,.00086,3.56934l-16.44,17.8396A2.00013,2.00013,0,0,1,24.03021,60.23033Z"/></g></g></svg>